<?xml version="1.0" encoding="utf-8"?>
<!-- Generator: Adobe Illustrator 27.2.0, SVG Export Plug-In . SVG Version: 6.00 Build 0)  -->
<svg version="1.1" id="groupe" xmlns="http://www.w3.org/2000/svg" xmlns:xlink="http://www.w3.org/1999/xlink" x="0px" y="0px"
	 viewBox="0 0 24 24" style="enable-background:new 0 0 24 24;" xml:space="preserve">
<path d="M1.8,10.5c0-4.4,3.6-8,8-8h4.4c4.5,0,8.1,3.6,8.1,8.1c0,3-1.6,5.7-4.2,7.1L10,22.2v-3.7H9.9C5.4,18.6,1.8,15,1.8,10.5z
	 M9.8,4.5c-3.3,0-6,2.7-6,6c0,3.4,2.8,6.1,6.1,6h0.4H12v2.3l5.1-2.8c2-1.1,3.2-3.1,3.2-5.4c0-3.4-2.7-6.1-6.1-6.1
	C14.1,4.5,9.8,4.5,9.8,4.5z"/>
</svg>
