<?xml version="1.0" encoding="utf-8"?>
<!-- Generator: Adobe Illustrator 27.2.0, SVG Export Plug-In . SVG Version: 6.00 Build 0)  -->
<svg version="1.1" id="groupe" xmlns="http://www.w3.org/2000/svg" xmlns:xlink="http://www.w3.org/1999/xlink" x="0px" y="0px"
	 viewBox="0 0 24 24" style="enable-background:new 0 0 24 24;" xml:space="preserve">
<path d="M4.5,4l4.4,4.1L7.6,9.6L5.5,7.7v8.5c0,1.1,0.9,2,2,2H13v2H7.5c-2.2,0-4-1.8-4-4V7.7L1.4,9.6L0.1,8.2L4.5,4z M16.5,6.2H11v-2
	h5.5c2.2,0,4,1.8,4,4v8.5l2.1-1.9l1.4,1.5l-4.4,4.1l-4.4-4.1l1.4-1.5l2.1,1.9V8.2C18.5,7.1,17.6,6.2,16.5,6.2z"/>
</svg>
